<svg xmlns="http://www.w3.org/2000/svg" width="933.333" height="933.333" preserveAspectRatio="xMidYMid meet" version="1.0" viewBox="0 0 700 700"><metadata>Created by potrace 1.14, written by Peter Selinger 2001-2017</metadata><g fill="#000" stroke="none"><path d="M5391 6983 c-19 -10 -43 -29 -53 -43 -10 -14 -209 -468 -444 -1010 -234 -542 -431 -996 -437 -1009 -11 -23 -17 -24 -87 -22 -48 1 -102 -5 -149 -17 l-75 -19 -48 38 c-69 54 -144 88 -238 106 -101 20 -208 8 -301 -33 l-59 -27 -59 27 c-33 15 -95 32 -139 38 -137 20 -286 -22 -400 -111 l-48 -38 -70 18 c-186 48 -377 -3 -508 -136 l-62 -62 -95 4 c-110 6 -191 -11 -283 -60 -72 -38 -162 -125 -203 -197 l-31 -54 -67 -3 c-128 -5 -243 -52 -333 -137 -70 -65 -123 -146 -146 -224 -19 -61 -19 -62 -70 -76 -132 -39 -251 -144 -314 -277 l-37 -78 -89 -1 c-71 0 -96 -4 -126 -21 -61 -35 -70 -60 -70 -202 0 -584 214 -1236 574 -1742 142 -200 361 -441 535 -585 l53 -45 -288 -5 c-266 -5 -292 -7 -323 -25 -66 -39 -76 -64 -74 -178 5 -300 172 -563 438 -692 182 -87 -31 -79 2180 -83 1343 -2 1986 1 2041 8 147 19 263 67 383 159 188 142 300 365 304 608 2 114 -8 139 -74 178 -31 18 -57 20 -323 25 l-288 5 53 45 c174 144 393 385 535 585 359 505 574 1159 574 1742 0 142 -9 167 -70 202 -30 17 -55 21 -126 21 l-89 1 -37 78 c-63 133 -182 238 -314 277 -51 14 -51 15 -70 76 -23 78 -76 159 -146 224 -90 85 -205 132 -332 137 l-67 3 -27 45 c-15 25 -40 62 -55 82 l-29 36 585 870 c322 479 591 880 597 891 17 33 14 105 -6 140 -39 66 -142 87 -204 42 -14 -10 -295 -419 -624 -908 l-599 -889 -130 1 -129 0 -35 42 -35 42 443 1023 c354 818 442 1031 442 1065 0 99 -115 171 -202 125z m-2100 -2263 c20 -6 52 -21 70 -35 117 -85 161 -85 278 0 107 78 245 48 327 -70 65 -92 131 -116 204 -75 71 39 141 72 146 68 2 -3 -37 -99 -86 -214 -98 -225 -108 -267 -73 -326 47 -81 187 -90 236 -15 12 19 71 151 157 351 l21 50 19 -32 c40 -65 128 -91 194 -57 15 8 32 15 37 15 5 0 -54 -95 -131 -211 -124 -187 -140 -215 -140 -252 0 -114 128 -185 221 -123 15 9 98 122 185 252 175 259 171 256 193 144 20 -99 91 -151 178 -128 21 5 55 14 76 19 71 18 155 -11 214 -73 43 -45 63 -96 63 -165 0 -114 46 -162 167 -173 81 -7 143 -31 177 -69 l19 -21 -2543 0 -2543 0 19 21 c34 38 96 62 177 69 121 11 167 59 167 173 0 69 20 120 63 165 70 74 168 95 270 59 98 -35 177 15 198 125 26 130 125 214 244 206 33 -3 81 -14 107 -26 98 -46 173 -19 220 79 48 102 128 158 223 159 48 0 80 -12 185 -71 72 -40 141 -16 200 71 67 99 160 138 261 110z m3069 -1439 c0 -5 -5 -55 -10 -112 -87 -867 -536 -1623 -1255 -2109 l-119 -80 -1475 0 -1474 0 -111 74 c-409 273 -735 638 -957 1070 -181 353 -276 685 -313 1104 l-6 62 2860 0 c1674 0 2860 -4 2860 -9z m-490 -2612 c0 -12 -16 -55 -36 -96 -65 -135 -195 -237 -341 -268 -58 -12 -359 -15 -1993 -15 -2118 0 -2000 -3 -2123 62 -114 61 -222 196 -243 306 l-6 32 2371 0 2371 0 0 -21z" transform="translate(0.000000,700.000000) scale(0.100000,-0.100000)"/></g></svg>